<svg xmlns="http://www.w3.org/2000/svg" viewBox="0 0 512 512">
  <defs>
    <linearGradient id="bg" x1="0%" y1="0%" x2="100%" y2="100%">
      <stop offset="0%" stop-color="#1A365D"/>
      <stop offset="100%" stop-color="#1e4d8c"/>
    </linearGradient>
    <linearGradient id="ag" x1="0%" y1="100%" x2="100%" y2="0%">
      <stop offset="0%" stop-color="#38A169"/>
      <stop offset="100%" stop-color="#68D391"/>
    </linearGradient>
    <clipPath id="c">
      <path d="M256,52 C164,52 96,120 96,198 C96,308 256,460 256,460 C256,460 416,308 416,198 C416,120 348,52 256,52 Z"/>
    </clipPath>
  </defs>
  <rect width="512" height="512" rx="100" fill="white"/>
  <path d="M256,36 C156,36 76,116 76,198 C76,322 256,484 256,484 C256,484 436,322 436,198 C436,116 356,36 256,36 Z"
        fill="none" stroke="url(#bg)" stroke-width="22"/>
  <path d="M102,198 A154,154 0 0,1 256,44" fill="none" stroke="#1A365D" stroke-width="20"
        stroke-linecap="round" opacity="0.45"/>
  <g clip-path="url(#c)">
    <rect x="96"  y="330" width="48" height="134" rx="8" fill="#1A365D" opacity="0.85"/>
    <rect x="154" y="282" width="48" height="182" rx="8" fill="#1A365D" opacity="0.85"/>
    <rect x="212" y="228" width="48" height="236" rx="8" fill="#1A365D" opacity="0.85"/>
    <rect x="270" y="170" width="48" height="294" rx="8" fill="#1A365D" opacity="0.85"/>
    <rect x="328" y="110" width="48" height="354" rx="8" fill="#1A365D" opacity="0.85"/>
    <line x1="90" y1="378" x2="398" y2="78" stroke="url(#ag)" stroke-width="30"
          stroke-linecap="round"/>
    <polygon points="398,78 316,96 356,158" fill="#48BB78"/>
  </g>
</svg>
