<svg xmlns="http://www.w3.org/2000/svg" viewBox="0 0 100 100" role="img" aria-label="Gestion Planning">
  <defs>
    <linearGradient id="sg" x1="0%" y1="0%" x2="100%" y2="100%">
      <stop offset="0%" stop-color="#1A365D"/>
      <stop offset="100%" stop-color="#2B6CB0"/>
    </linearGradient>
    <linearGradient id="ag" x1="0%" y1="100%" x2="100%" y2="0%">
      <stop offset="0%" stop-color="#38A169"/>
      <stop offset="100%" stop-color="#68D391"/>
    </linearGradient>
    <clipPath id="c">
      <path d="M50,8 C32,8 18,22 18,38 C18,60 50,92 50,92 C50,92 82,60 82,38 C82,22 68,8 50,8 Z"/>
    </clipPath>
  </defs>
  <path d="M50,4 C30,4 14,20 14,38 C14,63 50,98 50,98 C50,98 86,63 86,38 C86,20 70,4 50,4 Z"
        fill="none" stroke="url(#sg)" stroke-width="5"/>
  <path d="M22,38 A28,28 0 0,1 50,10" fill="none" stroke="#1A365D" stroke-width="4"
        stroke-linecap="round" opacity="0.5"/>
  <g clip-path="url(#c)">
    <rect x="18" y="62" width="9" height="28" rx="2" fill="#1A365D" opacity="0.9"/>
    <rect x="30" y="52" width="9" height="38" rx="2" fill="#1A365D" opacity="0.9"/>
    <rect x="42" y="40" width="9" height="50" rx="2" fill="#1A365D" opacity="0.9"/>
    <rect x="54" y="28" width="9" height="62" rx="2" fill="#1A365D" opacity="0.9"/>
    <rect x="66" y="16" width="9" height="74" rx="2" fill="#1A365D" opacity="0.9"/>
    <line x1="16" y1="72" x2="78" y2="14" stroke="url(#ag)" stroke-width="6" stroke-linecap="round"/>
    <polygon points="78,14 60,18 70,30" fill="#48BB78"/>
  </g>
</svg>